<svg height="24" viewBox="0 0 24 24" width="24" xmlns="http://www.w3.org/2000/svg"><path fill="#6B6C7B" d="m8.267 14.68c-.184 0-.308.018-.372.036v1.178c.076.018.171.023.302.023.479 0 .774-.242.774-.651 0-.366-.254-.586-.704-.586zm3.487.012c-.2 0-.33.018-.407.036v2.61c.077.018.201.018.313.018.817.006 1.349-.444 1.349-1.396.006-.83-.479-1.268-1.255-1.268z"/><path fill="#6B6C7B" d="m14 2h-8c-1.104 0-2 .896-2 2v16c0 1.104.896 2 2 2h12c1.104 0 2-.896 2-2v-12zm-4.502 14.19c-.309.29-.765.42-1.296.42-.119 0-.226-.006-.308-.018v1.426h-.894v-3.936c.278-.046.669-.082 1.219-.082.557 0 .953.106 1.22.319.254.202.426.533.426.923-.001.392-.131.723-.367.948zm3.807 1.355c-.42.349-1.059.515-1.84.515-.468 0-.799-.03-1.024-.06v-3.917c.331-.054.763-.083 1.219-.083.757 0 1.249.136 1.633.426.415.308.675.799.675 1.504 0 .763-.279 1.29-.663 1.615zm3.695-2.775h-1.532v.911h1.432v.734h-1.432v1.604h-.906v-3.989h2.438zm-3-5.77c-.553 0-1 0-1 0v-5l5 5z"/></svg>